<svg xmlns="http://www.w3.org/2000/svg">
<symbol id="icon-phone" viewBox="0 0 32 32">
<path d="M22 20c-2 2-2 4-4 4s-4-2-6-4-4-4-4-6 2-2 4-4-4-8-6-8-6 6-6 6c0 4 4.109 12.109 8 16s12 8 16 8c0 0 6-4 6-6s-6-8-8-6z"></path>
</symbol>

<symbol id="icon-location" viewBox="0 0 32 32">
<path d="M16 0c-5.523 0-10 4.477-10 10 0 10 10 22 10 22s10-12 10-22c0-5.523-4.477-10-10-10zM16 16c-3.314 0-6-2.686-6-6s2.686-6 6-6 6 2.686 6 6-2.686 6-6 6z"></path>
</symbol>

<symbol id="icon-mail4" viewBox="0 0 32 32">
<path d="M16 0c-8.837 0-16 7.163-16 16s7.163 16 16 16 16-7.163 16-16-7.163-16-16-16zM8 8h16c0.286 0 0.563 0.061 0.817 0.177l-8.817 10.286-8.817-10.287c0.254-0.116 0.531-0.177 0.817-0.177zM6 22v-12c0-0.042 0.002-0.084 0.004-0.125l5.864 6.842-5.8 5.8c-0.045-0.167-0.069-0.34-0.069-0.517zM24 24h-16c-0.177 0-0.35-0.024-0.517-0.069l5.691-5.691 2.826 3.297 2.826-3.297 5.691 5.691c-0.167 0.045-0.34 0.069-0.517 0.069zM26 22c0 0.177-0.024 0.35-0.069 0.517l-5.8-5.8 5.865-6.842c0.003 0.041 0.004 0.083 0.004 0.125v12z"></path>
</symbol>

<symbol id="icon-sport" viewBox="0 0 32 32">
<path d="M26.579 23.198c-2.821-2.488-6.523-3.998-10.579-3.998s-7.758 1.51-10.579 3.998c-1.4-2.053-2.221-4.531-2.221-7.198 0-2.666 0.821-5.144 2.221-7.197 2.821 2.488 6.523 3.997 10.579 3.997s7.758-1.509 10.579-3.997c1.4 2.053 2.221 4.531 2.221 7.197 0 2.667-0.821 5.146-2.221 7.198zM16 28.8c-3.238 0-6.2-1.21-8.456-3.2 2.256-1.99 5.218-3.2 8.456-3.2s6.2 1.21 8.456 3.2c-2.256 1.99-5.218 3.2-8.456 3.2zM16 3.2c3.238 0 6.2 1.21 8.456 3.2-2.256 1.99-5.218 3.2-8.456 3.2s-6.2-1.21-8.456-3.2c2.256-1.99 5.218-3.2 8.456-3.2zM16 0c-8.826 0-16 7.155-16 16 0 8.83 7.158 16 16 16 8.835 0 16-7.165 16-16 0-8.816-7.144-16-16-16z"></path>
</symbol>

<symbol id="icon-sport1" viewBox="0 0 32 32">
<path d="M21.938 9.76c2.507 0 4.546-2.039 4.546-4.546s-2.039-4.546-4.546-4.546c-2.507 0-4.546 2.039-4.546 4.546s2.039 4.546 4.546 4.546zM21.938 3.005c1.218 0 2.21 0.991 2.21 2.21s-0.991 2.21-2.21 2.21c-1.218 0-2.209-0.991-2.209-2.21s0.991-2.21 2.209-2.21z"></path>
<path d="M31.664 11.819c-0.453-0.459-1.193-0.465-1.652-0.012-0.027 0.027-3.14 2.507-12.407-1.453-4.008-1.713-7.23-1.874-9.578-0.48-2.866 1.701-3.218 5.046-3.231 5.188-0.061 0.64 0.406 1.206 1.046 1.27 0.040 0.004 0.079 0.006 0.118 0.006 0.59 0 1.097-0.448 1.161-1.047 0.003-0.023 0.27-2.335 2.117-3.418 1.648-0.966 4.224-0.748 7.449 0.631 4.378 1.871 7.599 2.449 9.909 2.449 3.395-0 4.823-1.25 5.057-1.48 0.46-0.453 0.465-1.193 0.012-1.652z"></path>
<path d="M16.817 15.397c-0.445-0.465-1.182-0.483-1.649-0.039-5.588 5.311-14.103 13.377-14.714 13.881-0.504 0.39-0.604 1.114-0.22 1.625 0.229 0.306 0.58 0.467 0.935 0.467 0.244 0 0.49-0.076 0.7-0.234 0.532-0.399 10.016-9.398 14.064-13.244l5.63 5.886c0.25 0.261 0.167 0.547 0.119 0.657s-0.196 0.368-0.557 0.368h-7.707c-0.645 0-1.168 0.523-1.168 1.168s0.523 1.168 1.168 1.168h7.707c1.198 0 2.235-0.685 2.706-1.786s0.249-2.324-0.579-3.19l-6.435-6.728z"></path>
</symbol>

<symbol id="icon-sport-recognition" viewBox="0 0 32 32">
<path d="M21.846 11.239c0 3.228-2.617 5.846-5.846 5.846s-5.846-2.617-5.846-5.846c0-3.228 2.617-5.846 5.846-5.846s5.846 2.617 5.846 5.846z"></path>
<path d="M28.371 28.508l-5.057-10.247 3.114-1.651c0.646-0.343 0.958-1.096 0.743-1.796l-1.096-3.575 1.096-3.575c0.214-0.699-0.097-1.453-0.743-1.796l-3.304-1.752-1.753-3.304c-0.343-0.646-1.096-0.959-1.796-0.743l-3.575 1.097-3.575-1.097c-0.7-0.216-1.453 0.097-1.796 0.743l-1.752 3.304-3.303 1.752c-0.647 0.343-0.959 1.096-0.744 1.796l1.097 3.575-1.097 3.575c-0.214 0.699 0.097 1.453 0.744 1.796l3.113 1.651-5.058 10.247c-0.065 0.131-0.044 0.288 0.052 0.399s0.249 0.152 0.388 0.106l4.139-1.382 1.419 4.125c0.032 0.092 0.098 0.166 0.183 0.207 0.042 0.021 0.088 0.034 0.137 0.037 0.147 0.009 0.284-0.070 0.349-0.201l5.081-10.295c0 0 0.074-0.191 0.624-0.191s0.624 0.192 0.624 0.192l5.080 10.295c0.065 0.131 0.202 0.211 0.348 0.201 0.049-0.003 0.096-0.015 0.138-0.037 0.084-0.041 0.151-0.115 0.183-0.207l1.419-4.125 4.138 1.382c0.139 0.046 0.292 0.005 0.388-0.106s0.117-0.268 0.052-0.399zM7.527 11.238c0-4.68 3.793-8.473 8.473-8.473s8.474 3.793 8.474 8.473-3.794 8.473-8.474 8.473c-4.68 0-8.473-3.794-8.473-8.473z"></path>
</symbol>

<symbol id="icon-clipboard" viewBox="0 0 32 32">
<path d="M29 4h-9c0-2.209-1.791-4-4-4s-4 1.791-4 4h-9c-0.552 0-1 0.448-1 1v26c0 0.552 0.448 1 1 1h26c0.552 0 1-0.448 1-1v-26c0-0.552-0.448-1-1-1zM16 2c1.105 0 2 0.895 2 2s-0.895 2-2 2c-1.105 0-2-0.895-2-2s0.895-2 2-2zM28 30h-24v-24h4v3c0 0.552 0.448 1 1 1h14c0.552 0 1-0.448 1-1v-3h4v24z"></path>
<path d="M14 26.828l-6.414-7.414 1.828-1.828 4.586 3.586 8.586-7.586 1.829 1.828z"></path>
</symbol>
</svg>

